<svg xmlns="http://www.w3.org/2000/svg" viewBox="-1.9 -1.9 3.8 3.8" width="182" height="182">
<title>Subwoofer (powered)</title>
<style>.s-bg{opacity:.5}.s-line{fill:none;stroke:rgba(255,255,255,.55);stroke-width:.05;stroke-linecap:round;stroke-linejoin:round}.s-thin{fill:none;stroke:rgba(255,255,255,.32);stroke-width:.035;stroke-linecap:round}.s-boom{fill:none;stroke:#e8ecef;stroke-width:.06;stroke-linecap:round}.s-edge{stroke:rgba(0,0,0,.45);stroke-width:.05}.s-dark{fill:#14181c}.s-white{fill:#eef1f3}.s-head{fill:rgba(255,255,255,.13)}.s-glass{fill:#0c1a24;stroke:rgba(255,255,255,.35);stroke-width:.04}.s-grille{fill:#171c21;stroke:rgba(255,255,255,.22);stroke-width:.035}.s-metal{fill:rgba(222,184,86,.42);stroke:#e1bd5f;stroke-width:.045}.s-led{fill:#5be08f}.s-red{fill:#ff6b5e}.s-port{fill:#14181c;stroke:rgba(255,255,255,.6);stroke-width:.03}.s-acrylic{fill:rgba(170,215,255,.16);stroke:rgba(190,225,255,.75);stroke-width:.05}.s-beam{fill:rgba(255,214,110,.16)}.s-ped1{fill:#3fb6a8}.s-ped2{fill:#e2833a}.s-ped3{fill:#d8d24a}.s-ped4{fill:#8a73d6}.s-deck{fill:rgba(255,255,255,.05);stroke:rgba(255,255,255,.45);stroke-width:.07;stroke-dasharray:.3 .2}.s-spruce{fill:#d8ad6c}.s-burst{fill:#3b1d10}.s-burstin{fill:#cf7a2b}.s-navy{fill:#33507c}.s-maple{fill:#e3c389}.s-rose{fill:#2b1c13}.s-varnish{fill:#a24f25}.s-pg{fill:#f2efe8}.s-cream{fill:#efe6d2}.s-chrome{fill:#cfd5da}.s-str{fill:none;stroke:rgba(255,255,255,.45);stroke-width:.006}.s-bind{fill:none;stroke:#2a1a10;stroke-width:.018}.s-fret{fill:none;stroke:rgba(255,255,255,.35);stroke-width:.008}.s-cab{fill:#2b3640}.s-cabtop{fill:#36434f}.s-mesh{fill:#14181c}.s-cone{fill:#5d6a77}.s-dot{fill:rgba(255,255,255,.2)}.s-txt{fill:rgba(255,255,255,.55);font:700 .3px Archivo,Arial,sans-serif;letter-spacing:.02px}.s-wood{fill:#c08a4e}.s-wood2{fill:#7a5232}.s-red2{fill:#b5413a}.s-blk{fill:#26292d}.s-brass{fill:#d6b04a}.c-audio{fill:#2e6a99}.c-inst{fill:#6b51a3}.c-power{fill:#b85a22}.c-infra{fill:#44535e}.c-video{fill:#a3426b}</style>
<rect x="-1.9" y="-1.9" width="3.8" height="3.8" rx="0.228" fill="#20272d"/>
<path class="s-cab s-edge" d="M-1.32 -1.5H1.32Q1.5 -1.5 1.5 -1.32V1.32Q1.5 1.5 1.32 1.5H-1.32Q-1.5 1.5 -1.5 1.32V-1.32Q-1.5 -1.5 -1.32 -1.5Z"/><rect class="s-cabtop" x="-1.32" y="-1.32" width="2.64" height="2.2" rx="0.14"/><rect class="s-mesh" x="-0.9" y="-1" width="0.45" height="0.14" rx="0.07"/><rect class="s-mesh" x="0.45" y="-1" width="0.45" height="0.14" rx="0.07"/><rect class="s-mesh" x="-0.9" y="0.45" width="0.45" height="0.14" rx="0.07"/><rect class="s-mesh" x="0.45" y="0.45" width="0.45" height="0.14" rx="0.07"/><text class="s-txt" x="0" y=".05" text-anchor="middle">SUB</text><path class="s-mesh" d="M-1.47 .95H1.47V1.32Q1.47 1.47 1.32 1.47H-1.32Q-1.47 1.47 -1.47 1.32Z"/><circle class="s-dot" cx="-1.38" cy="1.03" r="0.022"/><circle class="s-dot" cx="-1.278" cy="1.03" r="0.022"/><circle class="s-dot" cx="-1.176" cy="1.03" r="0.022"/><circle class="s-dot" cx="-1.074" cy="1.03" r="0.022"/><circle class="s-dot" cx="-0.972" cy="1.03" r="0.022"/><circle class="s-dot" cx="-0.87" cy="1.03" r="0.022"/><circle class="s-dot" cx="-0.768" cy="1.03" r="0.022"/><circle class="s-dot" cx="-0.666" cy="1.03" r="0.022"/><circle class="s-dot" cx="-0.564" cy="1.03" r="0.022"/><circle class="s-dot" cx="-0.462" cy="1.03" r="0.022"/><circle class="s-dot" cx="-0.36" cy="1.03" r="0.022"/><circle class="s-dot" cx="-0.258" cy="1.03" r="0.022"/><circle class="s-dot" cx="-0.156" cy="1.03" r="0.022"/><circle class="s-dot" cx="-0.054" cy="1.03" r="0.022"/><circle class="s-dot" cx="0.048" cy="1.03" r="0.022"/><circle class="s-dot" cx="0.15" cy="1.03" r="0.022"/><circle class="s-dot" cx="0.252" cy="1.03" r="0.022"/><circle class="s-dot" cx="0.354" cy="1.03" r="0.022"/><circle class="s-dot" cx="0.456" cy="1.03" r="0.022"/><circle class="s-dot" cx="0.558" cy="1.03" r="0.022"/><circle class="s-dot" cx="0.66" cy="1.03" r="0.022"/><circle class="s-dot" cx="0.762" cy="1.03" r="0.022"/><circle class="s-dot" cx="0.864" cy="1.03" r="0.022"/><circle class="s-dot" cx="0.966" cy="1.03" r="0.022"/><circle class="s-dot" cx="1.068" cy="1.03" r="0.022"/><circle class="s-dot" cx="1.17" cy="1.03" r="0.022"/><circle class="s-dot" cx="1.272" cy="1.03" r="0.022"/><circle class="s-dot" cx="1.374" cy="1.03" r="0.022"/><circle class="s-dot" cx="-1.38" cy="1.14" r="0.022"/><circle class="s-dot" cx="-1.278" cy="1.14" r="0.022"/><circle class="s-dot" cx="-1.176" cy="1.14" r="0.022"/><circle class="s-dot" cx="-1.074" cy="1.14" r="0.022"/><circle class="s-dot" cx="-0.972" cy="1.14" r="0.022"/><circle class="s-dot" cx="-0.87" cy="1.14" r="0.022"/><circle class="s-dot" cx="-0.768" cy="1.14" r="0.022"/><circle class="s-dot" cx="-0.666" cy="1.14" r="0.022"/><circle class="s-dot" cx="-0.564" cy="1.14" r="0.022"/><circle class="s-dot" cx="-0.462" cy="1.14" r="0.022"/><circle class="s-dot" cx="-0.36" cy="1.14" r="0.022"/><circle class="s-dot" cx="-0.258" cy="1.14" r="0.022"/><circle class="s-dot" cx="-0.156" cy="1.14" r="0.022"/><circle class="s-dot" cx="-0.054" cy="1.14" r="0.022"/><circle class="s-dot" cx="0.048" cy="1.14" r="0.022"/><circle class="s-dot" cx="0.15" cy="1.14" r="0.022"/><circle class="s-dot" cx="0.252" cy="1.14" r="0.022"/><circle class="s-dot" cx="0.354" cy="1.14" r="0.022"/><circle class="s-dot" cx="0.456" cy="1.14" r="0.022"/><circle class="s-dot" cx="0.558" cy="1.14" r="0.022"/><circle class="s-dot" cx="0.66" cy="1.14" r="0.022"/><circle class="s-dot" cx="0.762" cy="1.14" r="0.022"/><circle class="s-dot" cx="0.864" cy="1.14" r="0.022"/><circle class="s-dot" cx="0.966" cy="1.14" r="0.022"/><circle class="s-dot" cx="1.068" cy="1.14" r="0.022"/><circle class="s-dot" cx="1.17" cy="1.14" r="0.022"/><circle class="s-dot" cx="1.272" cy="1.14" r="0.022"/><circle class="s-dot" cx="1.374" cy="1.14" r="0.022"/><circle class="s-dot" cx="-1.38" cy="1.25" r="0.022"/><circle class="s-dot" cx="-1.278" cy="1.25" r="0.022"/><circle class="s-dot" cx="-1.176" cy="1.25" r="0.022"/><circle class="s-dot" cx="-1.074" cy="1.25" r="0.022"/><circle class="s-dot" cx="-0.972" cy="1.25" r="0.022"/><circle class="s-dot" cx="-0.87" cy="1.25" r="0.022"/><circle class="s-dot" cx="-0.768" cy="1.25" r="0.022"/><circle class="s-dot" cx="-0.666" cy="1.25" r="0.022"/><circle class="s-dot" cx="-0.564" cy="1.25" r="0.022"/><circle class="s-dot" cx="-0.462" cy="1.25" r="0.022"/><circle class="s-dot" cx="-0.36" cy="1.25" r="0.022"/><circle class="s-dot" cx="-0.258" cy="1.25" r="0.022"/><circle class="s-dot" cx="-0.156" cy="1.25" r="0.022"/><circle class="s-dot" cx="-0.054" cy="1.25" r="0.022"/><circle class="s-dot" cx="0.048" cy="1.25" r="0.022"/><circle class="s-dot" cx="0.15" cy="1.25" r="0.022"/><circle class="s-dot" cx="0.252" cy="1.25" r="0.022"/><circle class="s-dot" cx="0.354" cy="1.25" r="0.022"/><circle class="s-dot" cx="0.456" cy="1.25" r="0.022"/><circle class="s-dot" cx="0.558" cy="1.25" r="0.022"/><circle class="s-dot" cx="0.66" cy="1.25" r="0.022"/><circle class="s-dot" cx="0.762" cy="1.25" r="0.022"/><circle class="s-dot" cx="0.864" cy="1.25" r="0.022"/><circle class="s-dot" cx="0.966" cy="1.25" r="0.022"/><circle class="s-dot" cx="1.068" cy="1.25" r="0.022"/><circle class="s-dot" cx="1.17" cy="1.25" r="0.022"/><circle class="s-dot" cx="1.272" cy="1.25" r="0.022"/><circle class="s-dot" cx="1.374" cy="1.25" r="0.022"/><circle class="s-dot" cx="-1.38" cy="1.36" r="0.022"/><circle class="s-dot" cx="-1.278" cy="1.36" r="0.022"/><circle class="s-dot" cx="-1.176" cy="1.36" r="0.022"/><circle class="s-dot" cx="-1.074" cy="1.36" r="0.022"/><circle class="s-dot" cx="-0.972" cy="1.36" r="0.022"/><circle class="s-dot" cx="-0.87" cy="1.36" r="0.022"/><circle class="s-dot" cx="-0.768" cy="1.36" r="0.022"/><circle class="s-dot" cx="-0.666" cy="1.36" r="0.022"/><circle class="s-dot" cx="-0.564" cy="1.36" r="0.022"/><circle class="s-dot" cx="-0.462" cy="1.36" r="0.022"/><circle class="s-dot" cx="-0.36" cy="1.36" r="0.022"/><circle class="s-dot" cx="-0.258" cy="1.36" r="0.022"/><circle class="s-dot" cx="-0.156" cy="1.36" r="0.022"/><circle class="s-dot" cx="-0.054" cy="1.36" r="0.022"/><circle class="s-dot" cx="0.048" cy="1.36" r="0.022"/><circle class="s-dot" cx="0.15" cy="1.36" r="0.022"/><circle class="s-dot" cx="0.252" cy="1.36" r="0.022"/><circle class="s-dot" cx="0.354" cy="1.36" r="0.022"/><circle class="s-dot" cx="0.456" cy="1.36" r="0.022"/><circle class="s-dot" cx="0.558" cy="1.36" r="0.022"/><circle class="s-dot" cx="0.66" cy="1.36" r="0.022"/><circle class="s-dot" cx="0.762" cy="1.36" r="0.022"/><circle class="s-dot" cx="0.864" cy="1.36" r="0.022"/><circle class="s-dot" cx="0.966" cy="1.36" r="0.022"/><circle class="s-dot" cx="1.068" cy="1.36" r="0.022"/><circle class="s-dot" cx="1.17" cy="1.36" r="0.022"/><circle class="s-dot" cx="1.272" cy="1.36" r="0.022"/><circle class="s-dot" cx="1.374" cy="1.36" r="0.022"/><rect class="s-blk" x="-1.2" y="1.06" width="0.62" height="0.3" rx="0.05"/><rect class="s-blk" x="0.58" y="1.06" width="0.62" height="0.3" rx="0.05"/>
</svg>
